<mxfile modified="2022-12-22T03:29:52.016Z" host="app.diagrams.net" agent="5.0 (Windows NT 10.0; Win64; x64) AppleWebKit/537.36 (KHTML, like Gecko) Chrome/108.0.0.0 Safari/537.36" etag="QFCJonoCZ2RK6nsy_2W0" version="20.7.4" type="github">
  <diagram id="c-ZiDP76YGCTGs694rVp" name="Producer">
    <mxGraphModel dx="2117" dy="1771" grid="1" gridSize="10" guides="1" tooltips="1" connect="1" arrows="1" fold="1" page="1" pageScale="1" pageWidth="827" pageHeight="1169" math="0" shadow="0">
      <root>
        <mxCell id="0" />
        <mxCell id="1" parent="0" />
        <mxCell id="AODso3d17E0ccuLv2q-S-21" value="" style="rounded=0;whiteSpace=wrap;html=1;" parent="1" vertex="1">
          <mxGeometry x="-330" y="-75" width="990" height="585" as="geometry" />
        </mxCell>
        <mxCell id="VHj0I78YaaIwX5K1_NTm-5" value="" style="rounded=1;whiteSpace=wrap;html=1;" parent="1" vertex="1">
          <mxGeometry x="-300" y="63" width="280" height="190" as="geometry" />
        </mxCell>
        <mxCell id="VHj0I78YaaIwX5K1_NTm-33" value="" style="rounded=0;whiteSpace=wrap;html=1;" parent="1" vertex="1">
          <mxGeometry x="-288" y="148" width="258" height="95" as="geometry" />
        </mxCell>
        <mxCell id="goH0uiZRZ-OZr7PwWCnZ-1" value="" style="rounded=0;whiteSpace=wrap;html=1;" parent="1" vertex="1">
          <mxGeometry x="30" y="70" width="220" height="80" as="geometry" />
        </mxCell>
        <mxCell id="goH0uiZRZ-OZr7PwWCnZ-2" value="" style="endArrow=classic;html=1;exitX=0.5;exitY=1;exitDx=0;exitDy=0;entryX=0.286;entryY=0;entryDx=0;entryDy=0;entryPerimeter=0;" parent="1" source="goH0uiZRZ-OZr7PwWCnZ-5" target="goH0uiZRZ-OZr7PwWCnZ-1" edge="1">
          <mxGeometry width="50" height="50" relative="1" as="geometry">
            <mxPoint x="140" y="50" as="sourcePoint" />
            <mxPoint x="140" y="70" as="targetPoint" />
          </mxGeometry>
        </mxCell>
        <mxCell id="goH0uiZRZ-OZr7PwWCnZ-3" value="&lt;b&gt;KafkaProducer&lt;/b&gt;" style="text;html=1;strokeColor=none;fillColor=none;align=center;verticalAlign=middle;whiteSpace=wrap;rounded=0;" parent="1" vertex="1">
          <mxGeometry x="145" y="73" width="40" height="20" as="geometry" />
        </mxCell>
        <mxCell id="goH0uiZRZ-OZr7PwWCnZ-5" value="" style="rounded=1;whiteSpace=wrap;html=1;" parent="1" vertex="1">
          <mxGeometry x="20" y="-40" width="160" height="70" as="geometry" />
        </mxCell>
        <mxCell id="goH0uiZRZ-OZr7PwWCnZ-6" value="ProducerRecord" style="text;html=1;strokeColor=none;fillColor=none;align=center;verticalAlign=middle;whiteSpace=wrap;rounded=0;" parent="1" vertex="1">
          <mxGeometry x="80" y="-40" width="40" height="20" as="geometry" />
        </mxCell>
        <mxCell id="goH0uiZRZ-OZr7PwWCnZ-8" value="topic" style="rounded=0;whiteSpace=wrap;html=1;" parent="1" vertex="1">
          <mxGeometry x="25" y="-15" width="65" height="15" as="geometry" />
        </mxCell>
        <mxCell id="goH0uiZRZ-OZr7PwWCnZ-10" value="partition" style="rounded=0;whiteSpace=wrap;html=1;" parent="1" vertex="1">
          <mxGeometry x="100" y="-15" width="65" height="15" as="geometry" />
        </mxCell>
        <mxCell id="goH0uiZRZ-OZr7PwWCnZ-11" value="key" style="rounded=0;whiteSpace=wrap;html=1;" parent="1" vertex="1">
          <mxGeometry x="25" y="10" width="65" height="15" as="geometry" />
        </mxCell>
        <mxCell id="goH0uiZRZ-OZr7PwWCnZ-13" value="value" style="rounded=0;whiteSpace=wrap;html=1;" parent="1" vertex="1">
          <mxGeometry x="100" y="10" width="65" height="15" as="geometry" />
        </mxCell>
        <mxCell id="goH0uiZRZ-OZr7PwWCnZ-15" value="" style="rounded=0;whiteSpace=wrap;html=1;" parent="1" vertex="1">
          <mxGeometry x="315" y="70" width="260" height="140" as="geometry" />
        </mxCell>
        <mxCell id="goH0uiZRZ-OZr7PwWCnZ-16" value="&lt;b&gt;RecordAccumulator&lt;/b&gt;" style="text;html=1;strokeColor=none;fillColor=none;align=center;verticalAlign=middle;whiteSpace=wrap;rounded=0;" parent="1" vertex="1">
          <mxGeometry x="445" y="73" width="40" height="20" as="geometry" />
        </mxCell>
        <mxCell id="VHj0I78YaaIwX5K1_NTm-4" value="Metadata" style="text;html=1;strokeColor=none;fillColor=none;align=center;verticalAlign=middle;whiteSpace=wrap;rounded=0;" parent="1" vertex="1">
          <mxGeometry x="-185" y="63" width="40" height="20" as="geometry" />
        </mxCell>
        <mxCell id="VHj0I78YaaIwX5K1_NTm-6" value="Node" style="rounded=0;whiteSpace=wrap;html=1;" parent="1" vertex="1">
          <mxGeometry x="-220" y="93" width="30" height="20" as="geometry" />
        </mxCell>
        <mxCell id="VHj0I78YaaIwX5K1_NTm-7" value="" style="rounded=0;whiteSpace=wrap;html=1;" parent="1" vertex="1">
          <mxGeometry x="-204" y="173" width="164" height="20" as="geometry" />
        </mxCell>
        <mxCell id="VHj0I78YaaIwX5K1_NTm-8" value="brokers" style="text;html=1;strokeColor=none;fillColor=none;align=center;verticalAlign=middle;whiteSpace=wrap;rounded=0;" parent="1" vertex="1">
          <mxGeometry x="-270" y="93" width="40" height="20" as="geometry" />
        </mxCell>
        <mxCell id="VHj0I78YaaIwX5K1_NTm-9" value="&lt;span style=&quot;white-space: normal&quot;&gt;Node&lt;/span&gt;" style="rounded=0;whiteSpace=wrap;html=1;" parent="1" vertex="1">
          <mxGeometry x="-190" y="93" width="30" height="20" as="geometry" />
        </mxCell>
        <mxCell id="VHj0I78YaaIwX5K1_NTm-10" value="&lt;span style=&quot;white-space: normal&quot;&gt;Node&lt;/span&gt;" style="rounded=0;whiteSpace=wrap;html=1;" parent="1" vertex="1">
          <mxGeometry x="-160" y="93" width="30" height="20" as="geometry" />
        </mxCell>
        <mxCell id="VHj0I78YaaIwX5K1_NTm-12" value="&lt;span style=&quot;white-space: normal&quot;&gt;Node&lt;/span&gt;" style="rounded=0;whiteSpace=wrap;html=1;" parent="1" vertex="1">
          <mxGeometry x="-220" y="117" width="30" height="20" as="geometry" />
        </mxCell>
        <mxCell id="VHj0I78YaaIwX5K1_NTm-13" value="controller" style="text;html=1;strokeColor=none;fillColor=none;align=center;verticalAlign=middle;whiteSpace=wrap;rounded=0;" parent="1" vertex="1">
          <mxGeometry x="-268" y="117" width="40" height="20" as="geometry" />
        </mxCell>
        <mxCell id="VHj0I78YaaIwX5K1_NTm-16" value="topic" style="text;html=1;strokeColor=none;fillColor=none;align=center;verticalAlign=middle;whiteSpace=wrap;rounded=0;" parent="1" vertex="1">
          <mxGeometry x="-270" y="147" width="40" height="20" as="geometry" />
        </mxCell>
        <mxCell id="VHj0I78YaaIwX5K1_NTm-17" value="MyTopic" style="text;html=1;strokeColor=none;fillColor=none;align=center;verticalAlign=middle;whiteSpace=wrap;rounded=0;" parent="1" vertex="1">
          <mxGeometry x="-220" y="148" width="40" height="20" as="geometry" />
        </mxCell>
        <mxCell id="VHj0I78YaaIwX5K1_NTm-19" value="partition 0" style="text;html=1;strokeColor=none;fillColor=none;align=center;verticalAlign=middle;whiteSpace=wrap;rounded=0;" parent="1" vertex="1">
          <mxGeometry x="-275" y="171.5" width="60" height="20" as="geometry" />
        </mxCell>
        <mxCell id="VHj0I78YaaIwX5K1_NTm-20" value="leader&amp;nbsp;" style="text;html=1;strokeColor=none;fillColor=none;align=center;verticalAlign=middle;whiteSpace=wrap;rounded=0;" parent="1" vertex="1">
          <mxGeometry x="-152" y="175" width="50" height="19" as="geometry" />
        </mxCell>
        <mxCell id="VHj0I78YaaIwX5K1_NTm-21" value="ISR" style="text;html=1;strokeColor=none;fillColor=none;align=center;verticalAlign=middle;whiteSpace=wrap;rounded=0;" parent="1" vertex="1">
          <mxGeometry x="-195" y="176" width="42" height="18" as="geometry" />
        </mxCell>
        <mxCell id="VHj0I78YaaIwX5K1_NTm-22" value="replica" style="text;html=1;strokeColor=none;fillColor=none;align=center;verticalAlign=middle;whiteSpace=wrap;rounded=0;" parent="1" vertex="1">
          <mxGeometry x="-102" y="176" width="40" height="17" as="geometry" />
        </mxCell>
        <mxCell id="VHj0I78YaaIwX5K1_NTm-23" value="" style="rounded=0;whiteSpace=wrap;html=1;" parent="1" vertex="1">
          <mxGeometry x="-204" y="193" width="164" height="20" as="geometry" />
        </mxCell>
        <mxCell id="VHj0I78YaaIwX5K1_NTm-24" value="partition 1" style="text;html=1;strokeColor=none;fillColor=none;align=center;verticalAlign=middle;whiteSpace=wrap;rounded=0;" parent="1" vertex="1">
          <mxGeometry x="-275" y="191.5" width="60" height="20" as="geometry" />
        </mxCell>
        <mxCell id="VHj0I78YaaIwX5K1_NTm-25" value="leader&amp;nbsp;" style="text;html=1;strokeColor=none;fillColor=none;align=center;verticalAlign=middle;whiteSpace=wrap;rounded=0;" parent="1" vertex="1">
          <mxGeometry x="-152" y="195" width="50" height="19" as="geometry" />
        </mxCell>
        <mxCell id="VHj0I78YaaIwX5K1_NTm-26" value="ISR" style="text;html=1;strokeColor=none;fillColor=none;align=center;verticalAlign=middle;whiteSpace=wrap;rounded=0;" parent="1" vertex="1">
          <mxGeometry x="-195" y="196" width="42" height="18" as="geometry" />
        </mxCell>
        <mxCell id="VHj0I78YaaIwX5K1_NTm-27" value="replica" style="text;html=1;strokeColor=none;fillColor=none;align=center;verticalAlign=middle;whiteSpace=wrap;rounded=0;" parent="1" vertex="1">
          <mxGeometry x="-102" y="196" width="40" height="17" as="geometry" />
        </mxCell>
        <mxCell id="VHj0I78YaaIwX5K1_NTm-28" value="" style="rounded=0;whiteSpace=wrap;html=1;" parent="1" vertex="1">
          <mxGeometry x="-204" y="213" width="164" height="20" as="geometry" />
        </mxCell>
        <mxCell id="VHj0I78YaaIwX5K1_NTm-29" value="partition 2" style="text;html=1;strokeColor=none;fillColor=none;align=center;verticalAlign=middle;whiteSpace=wrap;rounded=0;" parent="1" vertex="1">
          <mxGeometry x="-275" y="213.5" width="60" height="20" as="geometry" />
        </mxCell>
        <mxCell id="VHj0I78YaaIwX5K1_NTm-30" value="replica" style="text;html=1;strokeColor=none;fillColor=none;align=center;verticalAlign=middle;whiteSpace=wrap;rounded=0;" parent="1" vertex="1">
          <mxGeometry x="-101" y="215" width="40" height="17" as="geometry" />
        </mxCell>
        <mxCell id="VHj0I78YaaIwX5K1_NTm-31" value="ISR" style="text;html=1;strokeColor=none;fillColor=none;align=center;verticalAlign=middle;whiteSpace=wrap;rounded=0;" parent="1" vertex="1">
          <mxGeometry x="-196" y="216" width="42" height="18" as="geometry" />
        </mxCell>
        <mxCell id="VHj0I78YaaIwX5K1_NTm-32" value="leader&amp;nbsp;" style="text;html=1;strokeColor=none;fillColor=none;align=center;verticalAlign=middle;whiteSpace=wrap;rounded=0;" parent="1" vertex="1">
          <mxGeometry x="-152" y="213" width="50" height="19" as="geometry" />
        </mxCell>
        <mxCell id="VHj0I78YaaIwX5K1_NTm-34" value="" style="endArrow=classic;html=1;exitX=0;exitY=0.25;exitDx=0;exitDy=0;entryX=1;entryY=0.25;entryDx=0;entryDy=0;" parent="1" source="goH0uiZRZ-OZr7PwWCnZ-1" target="VHj0I78YaaIwX5K1_NTm-5" edge="1">
          <mxGeometry width="50" height="50" relative="1" as="geometry">
            <mxPoint x="20" y="110" as="sourcePoint" />
            <mxPoint x="70" y="60" as="targetPoint" />
          </mxGeometry>
        </mxCell>
        <mxCell id="VHj0I78YaaIwX5K1_NTm-35" value="消息序列化、选择分区" style="rounded=0;whiteSpace=wrap;html=1;" parent="1" vertex="1">
          <mxGeometry x="57.5" y="117.5" width="150" height="20" as="geometry" />
        </mxCell>
        <mxCell id="VHj0I78YaaIwX5K1_NTm-37" value="P0" style="rounded=0;whiteSpace=wrap;html=1;" parent="1" vertex="1">
          <mxGeometry x="355" y="105" width="30" height="25" as="geometry" />
        </mxCell>
        <mxCell id="VHj0I78YaaIwX5K1_NTm-38" value="&lt;span style=&quot;white-space: normal&quot;&gt;Deque&amp;lt;RecordBatch&amp;gt;&lt;/span&gt;" style="rounded=0;whiteSpace=wrap;html=1;" parent="1" vertex="1">
          <mxGeometry x="415" y="104" width="140" height="27" as="geometry" />
        </mxCell>
        <mxCell id="VHj0I78YaaIwX5K1_NTm-41" value="" style="endArrow=classic;html=1;exitX=1;exitY=0.5;exitDx=0;exitDy=0;entryX=0;entryY=0.5;entryDx=0;entryDy=0;" parent="1" source="VHj0I78YaaIwX5K1_NTm-37" target="VHj0I78YaaIwX5K1_NTm-38" edge="1">
          <mxGeometry width="50" height="50" relative="1" as="geometry">
            <mxPoint x="425" y="120" as="sourcePoint" />
            <mxPoint x="475" y="70" as="targetPoint" />
          </mxGeometry>
        </mxCell>
        <mxCell id="VHj0I78YaaIwX5K1_NTm-42" value="P1" style="rounded=0;whiteSpace=wrap;html=1;" parent="1" vertex="1">
          <mxGeometry x="355" y="137.5" width="30" height="25" as="geometry" />
        </mxCell>
        <mxCell id="VHj0I78YaaIwX5K1_NTm-43" value="&lt;span style=&quot;white-space: normal&quot;&gt;Deque&amp;lt;RecordBatch&amp;gt;&lt;/span&gt;" style="rounded=0;whiteSpace=wrap;html=1;" parent="1" vertex="1">
          <mxGeometry x="415" y="136.5" width="140" height="27" as="geometry" />
        </mxCell>
        <mxCell id="VHj0I78YaaIwX5K1_NTm-44" value="" style="endArrow=classic;html=1;exitX=1;exitY=0.5;exitDx=0;exitDy=0;entryX=0;entryY=0.5;entryDx=0;entryDy=0;" parent="1" source="VHj0I78YaaIwX5K1_NTm-42" target="VHj0I78YaaIwX5K1_NTm-43" edge="1">
          <mxGeometry width="50" height="50" relative="1" as="geometry">
            <mxPoint x="425" y="152.5" as="sourcePoint" />
            <mxPoint x="475" y="102.5" as="targetPoint" />
          </mxGeometry>
        </mxCell>
        <mxCell id="VHj0I78YaaIwX5K1_NTm-45" value="P2" style="rounded=0;whiteSpace=wrap;html=1;" parent="1" vertex="1">
          <mxGeometry x="355" y="171.5" width="30" height="25" as="geometry" />
        </mxCell>
        <mxCell id="VHj0I78YaaIwX5K1_NTm-46" value="&lt;span style=&quot;white-space: normal&quot;&gt;Deque&amp;lt;RecordBatch&amp;gt;&lt;/span&gt;" style="rounded=0;whiteSpace=wrap;html=1;" parent="1" vertex="1">
          <mxGeometry x="415" y="170.5" width="140" height="27" as="geometry" />
        </mxCell>
        <mxCell id="VHj0I78YaaIwX5K1_NTm-47" value="" style="endArrow=classic;html=1;exitX=1;exitY=0.5;exitDx=0;exitDy=0;entryX=0;entryY=0.5;entryDx=0;entryDy=0;" parent="1" source="VHj0I78YaaIwX5K1_NTm-45" target="VHj0I78YaaIwX5K1_NTm-46" edge="1">
          <mxGeometry width="50" height="50" relative="1" as="geometry">
            <mxPoint x="425" y="186.5" as="sourcePoint" />
            <mxPoint x="475" y="136.5" as="targetPoint" />
          </mxGeometry>
        </mxCell>
        <mxCell id="VHj0I78YaaIwX5K1_NTm-48" value="" style="endArrow=classic;html=1;exitX=1;exitY=0.5;exitDx=0;exitDy=0;entryX=0;entryY=0.25;entryDx=0;entryDy=0;" parent="1" source="goH0uiZRZ-OZr7PwWCnZ-1" target="goH0uiZRZ-OZr7PwWCnZ-15" edge="1">
          <mxGeometry width="50" height="50" relative="1" as="geometry">
            <mxPoint x="430" y="80" as="sourcePoint" />
            <mxPoint x="480" y="30" as="targetPoint" />
          </mxGeometry>
        </mxCell>
        <mxCell id="VHj0I78YaaIwX5K1_NTm-49" value="" style="rounded=0;whiteSpace=wrap;html=1;" parent="1" vertex="1">
          <mxGeometry x="-288" y="276" width="885" height="60" as="geometry" />
        </mxCell>
        <mxCell id="VHj0I78YaaIwX5K1_NTm-50" value="&lt;b&gt;Sender&lt;/b&gt;" style="text;html=1;strokeColor=none;fillColor=none;align=center;verticalAlign=middle;whiteSpace=wrap;rounded=0;" parent="1" vertex="1">
          <mxGeometry x="-247" y="276" width="40" height="20" as="geometry" />
        </mxCell>
        <mxCell id="AODso3d17E0ccuLv2q-S-1" value="" style="rounded=0;whiteSpace=wrap;html=1;" parent="1" vertex="1">
          <mxGeometry x="-288" y="361" width="875" height="110" as="geometry" />
        </mxCell>
        <mxCell id="AODso3d17E0ccuLv2q-S-2" value="&lt;b&gt;NetworkClient&lt;/b&gt;" style="text;html=1;strokeColor=none;fillColor=none;align=center;verticalAlign=middle;whiteSpace=wrap;rounded=0;" parent="1" vertex="1">
          <mxGeometry x="-247" y="361" width="40" height="20" as="geometry" />
        </mxCell>
        <mxCell id="AODso3d17E0ccuLv2q-S-3" value="" style="endArrow=classic;html=1;exitX=0.25;exitY=1;exitDx=0;exitDy=0;entryX=0.75;entryY=0;entryDx=0;entryDy=0;" parent="1" source="goH0uiZRZ-OZr7PwWCnZ-15" target="VHj0I78YaaIwX5K1_NTm-49" edge="1">
          <mxGeometry width="50" height="50" relative="1" as="geometry">
            <mxPoint x="480" y="305" as="sourcePoint" />
            <mxPoint x="660" y="280" as="targetPoint" />
          </mxGeometry>
        </mxCell>
        <mxCell id="AODso3d17E0ccuLv2q-S-4" value="&lt;span style=&quot;white-space: normal&quot;&gt;List&amp;lt;RecordBatch&amp;gt;&lt;/span&gt;" style="rounded=0;whiteSpace=wrap;html=1;" parent="1" vertex="1">
          <mxGeometry x="385" y="226" width="140" height="27" as="geometry" />
        </mxCell>
        <mxCell id="AODso3d17E0ccuLv2q-S-5" value="构造出 ClientRequest" style="rounded=0;whiteSpace=wrap;html=1;" parent="1" vertex="1">
          <mxGeometry x="162" y="301" width="150" height="20" as="geometry" />
        </mxCell>
        <mxCell id="AODso3d17E0ccuLv2q-S-6" value="" style="endArrow=classic;html=1;exitX=0.5;exitY=1;exitDx=0;exitDy=0;entryX=0.5;entryY=0;entryDx=0;entryDy=0;" parent="1" source="VHj0I78YaaIwX5K1_NTm-49" target="AODso3d17E0ccuLv2q-S-1" edge="1">
          <mxGeometry width="50" height="50" relative="1" as="geometry">
            <mxPoint x="260" y="356" as="sourcePoint" />
            <mxPoint x="93.75" y="456" as="targetPoint" />
          </mxGeometry>
        </mxCell>
        <mxCell id="AODso3d17E0ccuLv2q-S-7" value="获取并连接服务端节点" style="rounded=0;whiteSpace=wrap;html=1;" parent="1" vertex="1">
          <mxGeometry x="-98" y="301" width="150" height="20" as="geometry" />
        </mxCell>
        <mxCell id="AODso3d17E0ccuLv2q-S-8" value="" style="endArrow=classic;html=1;entryX=0;entryY=0.5;entryDx=0;entryDy=0;exitX=1;exitY=0.5;exitDx=0;exitDy=0;" parent="1" source="AODso3d17E0ccuLv2q-S-7" target="AODso3d17E0ccuLv2q-S-5" edge="1">
          <mxGeometry width="50" height="50" relative="1" as="geometry">
            <mxPoint x="307" y="541" as="sourcePoint" />
            <mxPoint x="327" y="461" as="targetPoint" />
          </mxGeometry>
        </mxCell>
        <mxCell id="AODso3d17E0ccuLv2q-S-9" value="" style="rounded=0;whiteSpace=wrap;html=1;" parent="1" vertex="1">
          <mxGeometry x="-263" y="391" width="160" height="70" as="geometry" />
        </mxCell>
        <mxCell id="AODso3d17E0ccuLv2q-S-10" value="KafkaSelector" style="text;html=1;strokeColor=none;fillColor=none;align=center;verticalAlign=middle;whiteSpace=wrap;rounded=0;" parent="1" vertex="1">
          <mxGeometry x="-238" y="391" width="40" height="20" as="geometry" />
        </mxCell>
        <mxCell id="AODso3d17E0ccuLv2q-S-11" value="JDKSelector" style="rounded=0;whiteSpace=wrap;html=1;" parent="1" vertex="1">
          <mxGeometry x="-258" y="421" width="110" height="20" as="geometry" />
        </mxCell>
        <mxCell id="AODso3d17E0ccuLv2q-S-14" value="SelectionKey" style="rounded=0;whiteSpace=wrap;html=1;" parent="1" vertex="1">
          <mxGeometry x="-13" y="386" width="120" height="30" as="geometry" />
        </mxCell>
        <mxCell id="AODso3d17E0ccuLv2q-S-15" value="" style="rounded=0;whiteSpace=wrap;html=1;" parent="1" vertex="1">
          <mxGeometry x="190" y="391" width="157" height="70" as="geometry" />
        </mxCell>
        <mxCell id="AODso3d17E0ccuLv2q-S-16" value="Kafkachannel" style="text;html=1;strokeColor=none;fillColor=none;align=center;verticalAlign=middle;whiteSpace=wrap;rounded=0;" parent="1" vertex="1">
          <mxGeometry x="217" y="391" width="40" height="20" as="geometry" />
        </mxCell>
        <mxCell id="AODso3d17E0ccuLv2q-S-18" value="SocketChannel" style="rounded=0;whiteSpace=wrap;html=1;" parent="1" vertex="1">
          <mxGeometry x="204.5" y="416" width="120" height="30" as="geometry" />
        </mxCell>
        <mxCell id="AODso3d17E0ccuLv2q-S-19" value="" style="endArrow=classic;startArrow=classic;html=1;exitX=1;exitY=0.25;exitDx=0;exitDy=0;entryX=0;entryY=0.5;entryDx=0;entryDy=0;" parent="1" source="AODso3d17E0ccuLv2q-S-9" target="AODso3d17E0ccuLv2q-S-14" edge="1">
          <mxGeometry width="50" height="50" relative="1" as="geometry">
            <mxPoint x="-83" y="441" as="sourcePoint" />
            <mxPoint x="-33" y="391" as="targetPoint" />
          </mxGeometry>
        </mxCell>
        <mxCell id="AODso3d17E0ccuLv2q-S-20" value="" style="endArrow=classic;startArrow=classic;html=1;exitX=1;exitY=0.5;exitDx=0;exitDy=0;entryX=0;entryY=0.25;entryDx=0;entryDy=0;" parent="1" source="AODso3d17E0ccuLv2q-S-14" target="AODso3d17E0ccuLv2q-S-15" edge="1">
          <mxGeometry width="50" height="50" relative="1" as="geometry">
            <mxPoint x="167" y="561" as="sourcePoint" />
            <mxPoint x="217" y="511" as="targetPoint" />
          </mxGeometry>
        </mxCell>
      </root>
    </mxGraphModel>
  </diagram>
</mxfile>
